<svg xmlns="http://www.w3.org/2000/svg" width="32" height="32" viewBox="0 0 32 32"><defs><linearGradient id="a" x1="41.805" x2="314.882" y1="472.862" y2="525.098" gradientUnits="userSpaceOnUse"><stop offset="0" stop-color="#003265"/><stop offset="1" stop-color="#015F9F" stop-opacity=".988"/></linearGradient></defs><path fill="url(#a)" d="M253.046 409.054c-2.701-9.434-.361-21.532 4.33-29.981 5.339-9.618 14.685-17.476 25.341-20.426 11.347-3.14 24.247-1.436 34.412 4.449a43.37 43.37 0 0 1 20.451 26.707c2.904 11.369.676 23.385-5.369 33.336A43.52 43.52 0 0 1 305 443.137c-10.283 2.452-21.857.924-31.005-4.445-7.595 6.101-15.663 11.408-23.701 16.888l-22.376 15.528c-4.312 2.979-8.918 5.805-13.048 9.017a44.68 44.68 0 0 1-5.736 32.854c-.929 1.471-1.989 2.859-3.005 4.27-2.815 2.939-5.505 5.806-8.738 8.298-9.04 6.879-19.951 9.579-31.203 8.08-3.009-.4-5.971-1.131-8.729-2.413a1908 1908 0 0 1-40.077 37.615c-6 5.518-11.897 11.211-17.997 16.61 3.443 9.782 2.532 21.714-1.933 31.025a43.26 43.26 0 0 1-24.617 22.148 40.27 40.27 0 0 1-30.969-2.101c-6.26-3.088-12.195-7.787-16.112-13.606-1.333-1.98-2.37-4.231-3.725-6.157-2.84-7.322-4.17-13.967-3.698-21.862.597-9.98 5.14-20.008 12.628-26.701 3.968-3.725 9.15-6.785 14.228-8.719 8.293-3.157 19.403-3.669 27.623-.03 4.67-5.117 10.296-9.303 15.364-14.01 9.204-8.549 18.184-17.518 27.736-25.675 2.26-1.812 4.357-4.091 6.469-6.09 2.937-2.78 5.972-5.415 9.063-8.023-1.177-1.974-1.552-4.208-2.492-6.278-1.688-13.837.042-25.273 8.895-36.501 6.98-8.852 17.825-14.639 28.989-15.869 9.387-1.034 17.374.92 25.889 4.781 6.827-4.984 13.932-9.62 20.859-14.467 7.988-5.589 15.82-11.392 23.764-17.041 5.223-3.713 10.629-7.299 15.7-11.209" transform="scale(.04776)"/><path fill="#00A4E3" fill-opacity=".976" d="M19.155 5.708c.413-.037.783.036 1.107.309.3.254.502.626.53 1.02.025.387-.105.768-.36 1.06-.293.335-.626.44-1.056.466l-.846 1.226c-.184.263-.365.533-.57.78.21.315.334.66.336 1.042a2.06 2.06 0 0 1-.595 1.452c-.433.433-.94.59-1.538.59a3 3 0 0 1-.175-.02 1.97 1.97 0 0 1-1.312-.785 2.1 2.1 0 0 1-.357-1.547c.09-.534.39-1.009.833-1.32.429-.303.96-.423 1.477-.335.471-.656.925-1.333 1.438-1.957a1.464 1.464 0 0 1 .136-1.382c.235-.333.553-.53.952-.599"/><path fill="#004077" d="M3.391 16.634c.538-.02 1.053.114 1.463.48.391.35.647.86.673 1.386a2.03 2.03 0 0 1-.522 1.473c-.358.39-.891.613-1.415.638-.217.57-.415 1.156-.69 1.701q.068.107.116.223c.123.298.12.658-.005.955-.154.364-.433.595-.792.741-.309.093-.634.09-.931-.045a1.3 1.3 0 0 1-.684-.73A1.37 1.37 0 0 1 .65 22.43c.168-.353.461-.565.823-.695.195-.527.427-1.183.683-1.677a2.2 2.2 0 0 1-.553-1.244 2.07 2.07 0 0 1 .461-1.492 1.96 1.96 0 0 1 1.327-.688"/><path fill="#004077" d="M12.68 26.022a1.6 1.6 0 0 1 .043-.638c.115-.399.41-.734.771-.934a1.66 1.66 0 0 1 1.24-.128c.405.12.794.408.994.786.238.45.247.919.099 1.399l-.025.048c-.19.425-.532.763-.971.93-.263.1-.511.113-.788.085a7 7 0 0 1-.453-.127l-.189-.11c-.544.301-1.1.604-1.627.934-.025.12-.047.241-.093.356-.131.327-.377.595-.704.73a1.26 1.26 0 0 1-.97-.017c-.308-.13-.55-.38-.67-.692a1.3 1.3 0 0 1 .03-.996c.14-.31.385-.56.707-.678a1.3 1.3 0 0 1 .98.05c.147-.11.312-.2.467-.298q.57-.367 1.158-.7"/><path fill="#0088CA" fill-opacity=".969" d="M4.895 10.578a1.937 1.937 0 1 1 .512 3.84 1.937 1.937 0 0 1-.512-3.84"/><path fill="#0088CA" fill-opacity=".965" d="M18.648 14.857a1.926 1.926 0 1 1 .514 3.817 1.926 1.926 0 0 1-.514-3.817"/><path fill="#0088CA" fill-opacity=".98" d="M6.446 15.75c.207-.539.554-.968 1.092-1.203a1.9 1.9 0 0 1 1.47-.021c.486.186.874.562 1.074 1.041.183.428.206.961.03 1.396q-.045.11-.103.213c-.135-.077-.753-.218-.96-.286-.747-.247-1.946-.72-2.603-1.14"/><path fill="#00A4E3" fill-opacity=".98" d="M11.581 7.156a1.367 1.367 0 1 1 .21 2.726 1.367 1.367 0 0 1-.21-2.726"/><path fill="#00A4E3" fill-opacity=".98" d="M28.11 6.16a1.35 1.35 0 1 1 .424 2.667 1.35 1.35 0 0 1-.424-2.667"/><path fill="#004077" d="M6.446 15.75c.657.42 1.856.893 2.603 1.14.207.068.825.21.96.286-.327.517-.683.877-1.301 1.018a1.94 1.94 0 0 1-1.45-.239 2.5 2.5 0 0 1-.455-.39c-.436-.578-.446-.95-.415-1.64z"/><path fill="#00A4E3" fill-opacity=".976" d="M23.856 8.18a1.206 1.206 0 1 1 .295 2.394 1.206 1.206 0 0 1-.295-2.394"/><path fill="#0088CA" fill-opacity=".973" d="M12.23 12.84a1.092 1.092 0 1 1 .387 2.15 1.092 1.092 0 0 1-.388-2.15"/><path fill="#00A4E3" fill-opacity=".984" d="M23.766 4.542a.97.97 0 1 1 .383 1.9.97.97 0 0 1-.383-1.9"/><path fill="#0088CA" fill-opacity=".976" d="M26.377 11.378a.956.956 0 1 1 .285 1.89.956.956 0 0 1-.285-1.89"/><path fill="#0088CA" fill-opacity=".973" d="M21.876 11.886a.805.805 0 1 1 .28 1.585.805.805 0 0 1-.28-1.585"/><path fill="#0088CA" fill-opacity=".98" d="M22.827 15.282a.666.666 0 1 1 .279 1.303.666.666 0 0 1-.279-1.303"/><path fill="#00A4E3" fill-opacity=".984" d="M31.052 4.69a.648.648 0 1 1 .289 1.265.648.648 0 0 1-.289-1.264"/></svg>